<svg id="圖層_1" data-name="圖層 1" xmlns="http://www.w3.org/2000/svg" viewBox="0 0 512 512"><defs><style>.cls-1{fill:#3c9;}.cls-2{fill:#666;opacity:0.28;}.cls-3{fill:#fff;}</style></defs><title>表表表</title><circle class="cls-1" cx="256" cy="256" r="256"/><path class="cls-2" d="M511.46,272.43,307.29,69,141.77,186.2l-2,50.32v51.9L200.9,426.19l84.4,84.13C407.52,496.39,503.6,396.4,511.46,272.43Z" transform="translate(0 0)"/><path class="cls-3" d="M396.82,247.73c-.27-14.3-.29-14.35-5.28-16.45-3.92-1.65-5.27-3.49-6.18-8.44A104.64,104.64,0,0,0,381.92,210c-2-5.83-1.95-7.14.83-12.77l3.1-6.27-5.32-9.58c-5.26-9.47-5.41-9.58-12.06-9-6.45.52-7,.15-14.21-9-7.43-9.47-28.23-54.13-33.55-72C319,85.51,317,82.48,314.2,81.19c-2.4-1.1-4.06-3.26-4.08-5.31,0-5.11-1.84-7.15-9.14-10.35-5.33-2.33-13-3-40.32-3.55-46.75-.93-61.48,2.17-61.48,13,0,3-.86,4.93-2.23,4.93-3.26,0-7.14,5-9,11.59-4.49,15.78-25.75,62-32.77,71.22s-7.95,9.94-14.51,9.94c-6.79,0-7.08.23-12.47,10-5.1,9.28-5.32,10.26-2.86,13,3.38,3.74,3.34,8.17-.2,19.8-4.22,13.85-4.05,50,.31,66.24,3.07,11.49,3.1,12.43.46,17-2.73,4.76-2.67,5.06,3.07,15.5,3.22,5.86,7.29,11.11,9.06,11.67s7.56,7.42,8.69,7.42,5.84,3.91,10.44,8.69c6.34,6.59,10.32,13.12,16.38,26.91,20.19,46,26.71,58.27,33.31,62.76,7,4.76,18.1,8.82,30,11,19.89,3.63,49.86-1.66,63.9-11.27,6.74-4.61,15.33-20.12,34.16-61.66,6.57-14.5,10.65-21.12,17.12-27.74,4.67-4.78,9.26-8.69,10.21-8.69s2.66-1.49,3.8-3.32a7.3,7.3,0,0,1,5.35-3.31c2.39,0,4.82-3.07,9-11.39,5.11-10.14,5.48-11.73,3.39-14.49-3.1-4.09-3-8.68.36-23.25,2.56-11,3.27-12.26,7.87-13.78l5.05-1.66Zm-27.5,6.72c-2.82,52.49-40.1,95.14-92.64,106-55.43,11.45-110.61-19.72-130.85-73.92-4.38-11.74-5.22-16.57-5.88-33.63-.86-22.51,1.27-34,9.63-51.94a117,117,0,0,1,76.1-64.06c14.92-4,43.57-4,58,.09C337.61,152.24,372.26,199.75,369.32,254.45Z" transform="translate(0 0)"/><path class="cls-3" d="M254.35,148.51a98.89,98.89,0,1,0,98.89,98.88A98.88,98.88,0,0,0,254.35,148.51Zm0,28,.08.08h-.15Zm37.11,124.11H217.09v-13.5h74.37Zm-19-57.68v31.57H236.09V243h-19L254.28,182,291.46,243Z" transform="translate(0 0)"/></svg>